/* XPM */
static char *majorhighway[]={
"16 7 2 1",
". c #000000",
"# c #ff9900",
"................",
"################",
"################",
"################",
"################",
"################",
"................"};
